<?xml version="1.0" encoding="UTF-8" standalone="no"?>
<svg
   xmlns:dc="http://purl.org/dc/elements/1.1/"
   xmlns:cc="http://creativecommons.org/ns#"
   xmlns:rdf="http://www.w3.org/1999/02/22-rdf-syntax-ns#"
   xmlns:svg="http://www.w3.org/2000/svg"
   xmlns="http://www.w3.org/2000/svg"
   xmlns:sodipodi="http://sodipodi.sourceforge.net/DTD/sodipodi-0.dtd"
   xmlns:inkscape="http://www.inkscape.org/namespaces/inkscape"
   version="1.0"
   width="128"
   height="128"
   viewBox="0 0 95.999997 95.999997"
   preserveAspectRatio="xMidYMid meet"
   id="svg12"
   sodipodi:docname="large-file-audio.svg"
   inkscape:version="0.92.4 (5da689c313, 2019-01-14)">
  <defs
     id="defs16" />
  <sodipodi:namedview
     pagecolor="#ffffff"
     bordercolor="#666666"
     borderopacity="1"
     objecttolerance="10"
     gridtolerance="10"
     guidetolerance="10"
     inkscape:pageopacity="0"
     inkscape:pageshadow="2"
     inkscape:window-width="1920"
     inkscape:window-height="1011"
     id="namedview14"
     showgrid="false"
     units="px"
     inkscape:zoom="6.359375"
     inkscape:cx="64"
     inkscape:cy="64"
     inkscape:window-x="0"
     inkscape:window-y="0"
     inkscape:window-maximized="1"
     inkscape:current-layer="svg12" />
  <metadata
     id="metadata2">
Created by potrace 1.15, written by Peter Selinger 2001-2017
<rdf:RDF>
  <cc:Work
     rdf:about="">
    <dc:format>image/svg+xml</dc:format>
    <dc:type
       rdf:resource="http://purl.org/dc/dcmitype/StillImage" />
    <dc:title></dc:title>
  </cc:Work>
</rdf:RDF>
</metadata>
  <path
     style="opacity:1;fill:#b7b7b7;fill-opacity:1;fill-rule:nonzero;stroke:none;stroke-width:6.17584038;stroke-linecap:butt;stroke-linejoin:miter;stroke-miterlimit:4;stroke-dasharray:none;stroke-dashoffset:0;stroke-opacity:0.36470588;paint-order:normal"
     d="M 16 8 L 16 64 L 16 120 L 64 120 L 112 120 L 112 78.699219 L 112 37.5 L 97.199219 22.699219 L 82.5 8 L 49.199219 8 L 16 8 z M 20 12 L 50 12 L 80 12 L 80 26 L 80 40 L 94 40 L 108 40 L 108 78 L 108 116 L 64 116 L 20 116 L 20 64 L 20 12 z M 84 14.5 L 94.5 25 C 100.3 30.8 105 35.599219 105 35.699219 C 105 35.899219 100.3 36 94.5 36 L 84 36 L 84 25.300781 L 84 14.5 z M 52 52 L 52 68.900391 L 52 85.699219 L 48.199219 84.699219 C 40.799219 82.699219 32 86.7 32 92 C 32 99.5 47.399609 102.7 53.599609 96.5 C 55.899609 94.1 56 93.700001 56 77 L 56 60 L 70 60 L 84 60 L 84 72.900391 L 84 85.699219 L 80.199219 84.699219 C 72.799219 82.699219 64 86.7 64 92 C 64 99.5 79.399608 102.7 85.599609 96.5 C 87.999609 94.1 88 93.900001 88 73 L 88 52 L 70 52 L 52 52 z "
     transform="scale(0.74999998)"
     id="rect834" />
</svg>
