<?xml version="1.0" encoding="UTF-8"?>
<svg id="svg12" width="128" height="128" version="1.0" viewBox="0 0 96 96" xmlns="http://www.w3.org/2000/svg" xmlns:cc="http://creativecommons.org/ns#" xmlns:dc="http://purl.org/dc/elements/1.1/" xmlns:rdf="http://www.w3.org/1999/02/22-rdf-syntax-ns#">
 <metadata id="metadata2">
  <rdf:RDF>
   <cc:Work rdf:about="">
    <dc:format>image/svg+xml</dc:format>
    <dc:type rdf:resource="http://purl.org/dc/dcmitype/StillImage"/>
    <dc:title/>
    <dc:creator>
     <cc:Agent>
      <dc:title>Mirian Margiani</dc:title>
     </cc:Agent>
    </dc:creator>
    <dc:date>2020</dc:date>
    <cc:license rdf:resource="http://creativecommons.org/licenses/by-sa/4.0/"/>
   </cc:Work>
   <cc:License rdf:about="http://creativecommons.org/licenses/by-sa/4.0/">
    <cc:permits rdf:resource="http://creativecommons.org/ns#Reproduction"/>
    <cc:permits rdf:resource="http://creativecommons.org/ns#Distribution"/>
    <cc:requires rdf:resource="http://creativecommons.org/ns#Notice"/>
    <cc:requires rdf:resource="http://creativecommons.org/ns#Attribution"/>
    <cc:permits rdf:resource="http://creativecommons.org/ns#DerivativeWorks"/>
    <cc:requires rdf:resource="http://creativecommons.org/ns#ShareAlike"/>
   </cc:License>
  </rdf:RDF>
 </metadata>
 <path id="path857" d="m37.113 13.517h36.18l9.1686 9.1686v59.797h-68.923v-59.797l9.1686-9.1686h36.18" fill="none" stroke="#b7b7b7" stroke-linecap="round" stroke-width="3"/>
 <path id="path863" d="m14.033 22.643h67.726" fill="none" stroke="#b7b7b7" stroke-linecap="round" stroke-width="3"/>
 <g id="g988" fill="#b7b7b7" stroke="#b7b7b7">
  <path id="path2" d="m30.284 47.251c-0.77535 0-1.4332 0.27038-1.974 0.81115-0.54077 0.54077-0.81123 1.1897-0.81123 1.947v11.629c0 0.77633 0.27038 1.4336 0.81123 1.9745 0.54077 0.54077 1.1986 0.81123 1.974 0.81123 0.77478 0 1.4287-0.27038 1.961-0.81123 0.53133-0.54077 0.79773-1.1981 0.79773-1.9745v-11.629c0-0.75745-0.27038-1.4063-0.81123-1.947-0.54085-0.54077-1.1902-0.81115-1.9475-0.81115z" stroke-width=".081368"/>
  <path id="path4" d="m54.139 36.812-0.70253-0.35061c-1.7132-0.75745-3.5252-1.1369-5.4359-1.1369-1.9112 0-3.7233 0.3795-5.4358 1.1369l-0.70253 0.35061c-1.947 0.99293-3.4977 2.3758-4.6515 4.1515-1.1538 1.7767-1.7309 3.2601-1.7309 5.3699h25.014c0-2.1094-0.57722-3.5928-1.7309-5.3699-1.1539-1.7758-2.6956-3.1586-4.6243-4.1515zm-10.222 5.3919c-0.28473 0.2854-0.62481 0.42743-1.0201 0.42743-0.39608 0-0.72924-0.14203-1.001-0.42743-0.27179-0.28406-0.40769-0.6228-0.40769-1.0194 0-0.3953 0.1359-0.7347 0.40769-1.0194 0.27179-0.28406 0.60573-0.4261 1.001-0.4261 0.3953 0 0.73537 0.14203 1.0201 0.4261 0.28406 0.2854 0.42676 0.62414 0.42676 1.0194-7.33e-4 0.39597-0.14337 0.73538-0.42676 1.0194zm10.187 0c-0.27235 0.2854-0.60628 0.42743-1.0009 0.42743-0.39619 0-0.73615-0.14203-1.0203-0.42743-0.28462-0.28406-0.42665-0.6228-0.42665-1.0194 0-0.3953 0.14203-0.7347 0.42665-1.0194 0.28418-0.28406 0.62414-0.4261 1.0203-0.4261 0.3953 0 0.72846 0.14203 1.0009 0.4261 0.27201 0.2854 0.40769 0.62414 0.40769 1.0194 0 0.39597-0.13578 0.73538-0.40769 1.0194z" stroke-width=".081368"/>
  <path id="path6" d="m35.587 65.775c0 0.83011 0.28828 1.5328 0.86494 2.1095 0.57714 0.57665 1.2798 0.86494 2.1094 0.86494h2.0013l0.02742 6.1395c0 0.77527 0.27038 1.4336 0.81115 1.9745 0.54077 0.54085 1.1902 0.81123 1.947 0.81123 0.77486 0 1.4331-0.27038 1.974-0.81123s0.81123-1.1991 0.81123-1.9745v-6.1389h3.7318v6.1389c0 0.77527 0.2703 1.4336 0.81115 1.9745 0.54085 0.54085 1.1985 0.81123 1.974 0.81123 0.77486 0 1.4331-0.27038 1.974-0.81123s0.81115-1.1991 0.81115-1.9745v-6.1389h2.0283c0.81115 0 1.5048-0.28837 2.0825-0.86502 0.57657-0.57665 0.86502-1.2793 0.86502-2.1094v-17.056h-24.824z" stroke-width=".081368"/>
  <path id="path8" d="m65.716 47.251c-0.75745 0-1.4063 0.2664-1.9471 0.79773-0.54077 0.53231-0.81115 1.1862-0.81115 1.9605v11.629c0 0.77633 0.2703 1.4336 0.81115 1.9745s1.1902 0.81123 1.9471 0.81123c0.77486 0 1.4331-0.27038 1.974-0.81123 0.54085-0.54085 0.81115-1.1981 0.81115-1.9745v-11.629c0-0.77438-0.2703-1.4282-0.81115-1.9605-0.54085-0.53133-1.1991-0.79773-1.974-0.79773z" stroke-width=".081368"/>
  <path id="path946" d="m40.077 32.991c0.85402 1.5199 1.7071 3.0382 2.5606 4.5572" stroke-linecap="square" stroke-width="2.9248"/>
  <path id="path950" d="m55.924 32.991c-0.88484 1.5493-1.7694 3.0981-2.6541 4.6471" stroke-linecap="square" stroke-width="2.925"/>
 </g>
</svg>
