<?xml version="1.0" encoding="UTF-8"?>
<svg id="svg12" width="128" height="128" version="1.0" viewBox="0 0 96 96" xmlns="http://www.w3.org/2000/svg" xmlns:cc="http://creativecommons.org/ns#" xmlns:dc="http://purl.org/dc/elements/1.1/" xmlns:rdf="http://www.w3.org/1999/02/22-rdf-syntax-ns#">
 <metadata id="metadata2">
  <rdf:RDF>
   <cc:Work rdf:about="">
    <dc:format>image/svg+xml</dc:format>
    <dc:type rdf:resource="http://purl.org/dc/dcmitype/StillImage"/>
    <dc:title/>
    <dc:creator>
     <cc:Agent>
      <dc:title>Mirian Margiani</dc:title>
     </cc:Agent>
    </dc:creator>
    <dc:date>2019-2020</dc:date>
    <cc:license rdf:resource="http://creativecommons.org/licenses/by-sa/4.0/"/>
   </cc:Work>
   <cc:License rdf:about="http://creativecommons.org/licenses/by-sa/4.0/">
    <cc:permits rdf:resource="http://creativecommons.org/ns#Reproduction"/>
    <cc:permits rdf:resource="http://creativecommons.org/ns#Distribution"/>
    <cc:requires rdf:resource="http://creativecommons.org/ns#Notice"/>
    <cc:requires rdf:resource="http://creativecommons.org/ns#Attribution"/>
    <cc:permits rdf:resource="http://creativecommons.org/ns#DerivativeWorks"/>
    <cc:requires rdf:resource="http://creativecommons.org/ns#ShareAlike"/>
   </cc:License>
  </rdf:RDF>
 </metadata>
 <path id="rect834" transform="scale(.75)" d="m16 8v112h96v-82.5l-29.5-29.5zm4 4h60v28h28v76h-88zm64 2.5s21 21.099 21 21.199c0 0.2-21 0.30078-21 0.30078zm-32 37.5v33.699l-3.8008-1c-7.4-2-16.199 2.0008-16.199 7.3008 0 7.5 15.4 10.7 21.6 4.5 2.3-2.4 2.4004-2.8 2.4004-19.5v-17h28v25.699l-3.8008-1c-7.4-2-16.199 2.0008-16.199 7.3008 0 7.5 15.4 10.7 21.6 4.5 2.4-2.4 2.4004-2.6 2.4004-23.5v-21z" fill="#b7b7b7" style="paint-order:normal"/>
</svg>
