<?xml version="1.0" encoding="UTF-8" standalone="no"?>
<svg
   xmlns:dc="http://purl.org/dc/elements/1.1/"
   xmlns:cc="http://creativecommons.org/ns#"
   xmlns:rdf="http://www.w3.org/1999/02/22-rdf-syntax-ns#"
   xmlns:svg="http://www.w3.org/2000/svg"
   xmlns="http://www.w3.org/2000/svg"
   xmlns:sodipodi="http://sodipodi.sourceforge.net/DTD/sodipodi-0.dtd"
   xmlns:inkscape="http://www.inkscape.org/namespaces/inkscape"
   version="1.0"
   width="128"
   height="128"
   viewBox="0 0 95.999997 95.999997"
   preserveAspectRatio="xMidYMid meet"
   id="svg12"
   sodipodi:docname="file-pdf.svg"
   inkscape:version="0.92.4 (5da689c313, 2019-01-14)">
  <defs
     id="defs16" />
  <sodipodi:namedview
     pagecolor="#ffffff"
     bordercolor="#666666"
     borderopacity="1"
     objecttolerance="10"
     gridtolerance="10"
     guidetolerance="10"
     inkscape:pageopacity="0"
     inkscape:pageshadow="2"
     inkscape:window-width="1920"
     inkscape:window-height="1011"
     id="namedview14"
     showgrid="false"
     units="px"
     inkscape:zoom="6.359375"
     inkscape:cx="64"
     inkscape:cy="64"
     inkscape:window-x="0"
     inkscape:window-y="0"
     inkscape:window-maximized="1"
     inkscape:current-layer="svg12" />
  <metadata
     id="metadata2">
Created by potrace 1.15, written by Peter Selinger 2001-2017
<rdf:RDF>
  <cc:Work
     rdf:about="">
    <dc:format>image/svg+xml</dc:format>
    <dc:type
       rdf:resource="http://purl.org/dc/dcmitype/StillImage" />
    <dc:title />
  </cc:Work>
</rdf:RDF>
</metadata>
  <path
     style="opacity:1;fill:#b7b7b7;fill-opacity:1;fill-rule:nonzero;stroke:none;stroke-width:6.17584038;stroke-linecap:butt;stroke-linejoin:miter;stroke-miterlimit:4;stroke-dasharray:none;stroke-dashoffset:0;stroke-opacity:0.36470588;paint-order:normal"
     d="m 16,8 v 56 56 h 48 48 V 78.699219 37.5 L 97.199219,22.699219 82.5,8 H 49.199219 Z m 4,4 h 30 30 v 14 14 h 14 14 v 38 38 H 64 20 V 64 Z M 84,14.5 94.5,25 C 100.3,30.8 105,35.599219 105,35.699219 105,35.899219 100.3,36 94.5,36 H 84 V 25.300781 Z"
     transform="scale(0.74999998)"
     id="rect834"
     inkscape:connector-curvature="0"
     sodipodi:nodetypes="cccccccccccccccccccccccccsssccc" />
  <path
     style="opacity:1;fill:#b7b7b7;fill-opacity:1;fill-rule:nonzero;stroke:none;stroke-width:1.35727799;stroke-linecap:butt;stroke-linejoin:miter;stroke-miterlimit:4;stroke-dasharray:none;stroke-dashoffset:0;stroke-opacity:0.36470588;paint-order:normal"
     d="m 46.829067,33.017888 c -0.285588,-0.01432 -0.579807,0.01803 -0.932469,0.08935 -2.617428,0.529436 -3.76387,2.674839 -3.769672,7.053618 -0.0032,2.42597 0.649501,5.767809 1.715482,8.782908 0.297591,0.84173 0.541956,1.69782 0.542586,1.9023 0.0026,0.847881 -2.181015,5.937292 -3.951622,9.210155 -1.488283,2.75102 -3.095322,5.379989 -3.417151,5.590748 -0.155445,0.101797 -0.821185,0.400405 -1.479931,0.663612 -0.658743,0.263206 -1.976654,0.854399 -2.928174,1.314228 -6.166635,2.980061 -9.319225,6.511027 -8.72199,9.76736 0.159195,0.867991 0.443836,1.317847 1.063239,1.680555 0.94124,0.551166 1.854176,0.550308 3.3205,-0.0016 2.530898,-0.95263 5.733408,-4.033444 9.046077,-8.701683 1.852068,-2.60995 1.578126,-2.387692 3.827345,-3.097939 3.526795,-1.113676 6.446127,-1.807447 10.224659,-2.429454 2.929365,-0.482218 2.828379,-0.497013 3.753428,0.55802 0.873043,0.995719 3.466382,3.412147 4.829666,4.49989 1.894675,1.51173 4.087319,2.782265 5.535515,3.208405 0.999692,0.294167 2.560503,0.299359 3.535744,0.01218 1.449068,-0.426696 2.733925,-1.597661 3.053267,-2.783596 0.08208,-0.30481 0.128343,-1.037284 0.103153,-1.627759 C 72.140689,67.8173 72.058116,67.482568 71.689746,66.734596 70.050691,63.4065 65.608742,61.681491 58.190883,61.492267 l -2.897311,-0.07391 -0.676608,-0.740776 C 52.478291,58.337566 49.3696,54.039358 48.104307,51.672144 l -0.56939,-1.064866 0.621374,-2.195524 c 0.973471,-3.440425 1.581582,-6.54959 2.027387,-10.368429 0.34628,-2.966284 0.08872,-3.629831 -1.757718,-4.524257 -0.667294,-0.323243 -1.120913,-0.477309 -1.596893,-0.501162 z m -0.377698,2.884317 c 0.767611,0 0.995824,0.19025 0.995824,0.830936 0,1.486791 -1.004703,7.741676 -1.345906,8.379219 -0.172869,0.323009 -0.368012,0.29969 -0.501973,-0.06092 -0.382302,-1.029119 -0.60867,-2.811232 -0.611627,-4.823981 -0.0047,-3.23676 0.363957,-4.325254 1.463682,-4.325254 z m -0.15108,18.630682 c 0.108987,0 0.539521,0.524328 0.956838,1.164773 0.931764,1.429971 2.34676,3.354013 3.470763,4.720011 0.76592,0.930821 1.056263,1.567652 0.714783,1.567652 -0.737006,0 -6.842643,1.345592 -9.417278,2.07531 -0.193732,0.0549 -0.322744,0.02002 -0.368765,-0.09991 -0.03891,-0.101392 0.420573,-1.081341 1.021005,-2.177654 0.988298,-1.80451 2.962653,-5.923574 3.29288,-6.870861 0.07266,-0.208428 0.220789,-0.379323 0.329774,-0.379323 z m 12.803569,9.729998 c 0.177294,0.0071 0.401943,0.02226 0.688793,0.04306 2.714027,0.19661 5.931367,0.92468 7.279424,1.647253 0.367096,0.196766 0.974322,0.656658 1.349155,1.022627 1.312924,1.281873 1.443438,2.687105 0.303783,3.268513 -0.632934,0.322898 -1.584599,0.428567 -2.28081,0.254235 -1.30017,-0.325562 -3.653747,-1.830612 -5.920523,-3.78673 -1.870352,-1.614024 -2.220321,-1.991674 -2.111863,-2.274313 0.05753,-0.149937 0.160162,-0.19611 0.692041,-0.174635 z m -25.77121,6.223494 c 0.343924,0.0052 -8.82e-4,0.574116 -1.041312,1.777212 -2.099746,2.428011 -3.848056,3.876496 -5.173248,4.286269 -0.215224,0.06655 -0.323987,0.03102 -0.384197,-0.125901 -0.04619,-0.120332 -0.0087,-0.468499 0.08285,-0.774078 0.329364,-1.099384 3.290551,-3.643162 5.620799,-4.828041 0.440199,-0.223831 0.738775,-0.33784 0.895108,-0.335461 z"
     id="rect851"
     inkscape:connector-curvature="0" />
</svg>
