<?xml version="1.0" encoding="UTF-8" standalone="no"?>
<svg
   xmlns:dc="http://purl.org/dc/elements/1.1/"
   xmlns:cc="http://creativecommons.org/ns#"
   xmlns:rdf="http://www.w3.org/1999/02/22-rdf-syntax-ns#"
   xmlns:svg="http://www.w3.org/2000/svg"
   xmlns="http://www.w3.org/2000/svg"
   xmlns:sodipodi="http://sodipodi.sourceforge.net/DTD/sodipodi-0.dtd"
   xmlns:inkscape="http://www.inkscape.org/namespaces/inkscape"
   version="1.0"
   width="128"
   height="128"
   viewBox="0 0 95.999997 95.999997"
   preserveAspectRatio="xMidYMid meet"
   id="svg12"
   sodipodi:docname="file-compressed.svg"
   inkscape:version="0.92.4 (5da689c313, 2019-01-14)">
  <defs
     id="defs16">
    <inkscape:path-effect
       only_selected="false"
       apply_with_weight="true"
       apply_no_weight="true"
       helper_size="0"
       steps="2"
       weight="33.333333"
       is_visible="true"
       id="path-effect877"
       effect="bspline" />
    <inkscape:path-effect
       effect="bspline"
       id="path-effect873"
       is_visible="true"
       weight="33.333333"
       steps="2"
       helper_size="0"
       apply_no_weight="true"
       apply_with_weight="true"
       only_selected="false" />
  </defs>
  <sodipodi:namedview
     pagecolor="#ffffff"
     bordercolor="#666666"
     borderopacity="1"
     objecttolerance="10"
     gridtolerance="10"
     guidetolerance="10"
     inkscape:pageopacity="0"
     inkscape:pageshadow="2"
     inkscape:window-width="1920"
     inkscape:window-height="1011"
     id="namedview14"
     showgrid="false"
     units="px"
     inkscape:zoom="3.18"
     inkscape:cx="149.07035"
     inkscape:cy="90.110012"
     inkscape:window-x="0"
     inkscape:window-y="0"
     inkscape:window-maximized="1"
     inkscape:current-layer="svg12"
     showguides="true"
     inkscape:guide-bbox="true" />
  <metadata
     id="metadata2">
Created by potrace 1.15, written by Peter Selinger 2001-2017
<rdf:RDF>
  <cc:Work
     rdf:about="">
    <dc:format>image/svg+xml</dc:format>
    <dc:type
       rdf:resource="http://purl.org/dc/dcmitype/StillImage" />
    <dc:title />
  </cc:Work>
</rdf:RDF>
</metadata>
  <path
     style="opacity:1;fill:#b7b7b7;fill-opacity:1;fill-rule:nonzero;stroke:none;stroke-width:6.17584038;stroke-linecap:butt;stroke-linejoin:miter;stroke-miterlimit:4;stroke-dasharray:none;stroke-dashoffset:0;stroke-opacity:0.36470588;paint-order:normal"
     d="m 16,8 v 56 56 h 48 48 V 78.699219 37.5 L 97.199219,22.699219 82.5,8 H 49.199219 Z m 4,4 h 30 30 v 14 14 h 14 14 v 38 38 H 64 20 V 64 Z M 84,14.5 94.5,25 C 100.3,30.8 105,35.599219 105,35.699219 105,35.899219 100.3,36 94.5,36 H 84 V 25.300781 Z"
     transform="scale(0.74999998)"
     id="rect834"
     inkscape:connector-curvature="0"
     sodipodi:nodetypes="cccccccccccccccccccccccccsssccc" />
  <g
     id="g834"
     transform="translate(6)">
    <path
       inkscape:connector-curvature="0"
       id="rect884"
       d="m 24.752929,57.704588 c 0,0 -0.424684,1.64937 -0.665039,3.083496 -1.33921,7.990667 -1.590819,10.979003 -1.59082,10.979003 0,0 0.448362,1.01201 0.839355,1.627442 0.994568,1.565467 2.814263,2.533887 4.703614,2.613281 v 0.01172 c 0.08172,0.0034 0.162983,-0.0058 0.244628,-0.0059 0.08165,5.1e-5 0.162905,0.0092 0.244629,0.0059 v -0.01172 c 1.88935,-0.07939 3.709045,-1.047814 4.703613,-2.613281 0.390993,-0.615432 0.839355,-1.627442 0.839356,-1.627442 -2e-6,0 -0.251611,-2.988337 -1.59082,-10.979003 -0.240356,-1.434126 -0.66504,-3.083496 -0.66504,-3.083496 h -3.287109 -0.489257 z m 3.531738,8.52832 c 0.298754,0.01893 0.613354,0.163328 0.946289,0.449707 1.08089,0.929742 1.150109,3.606943 0.121582,4.710937 -0.267499,0.287126 -0.748155,0.52295 -1.067871,0.52295 -0.319715,0 -0.800371,-0.235824 -1.067871,-0.52295 -1.028527,-1.103994 -0.959309,-3.781195 0.121582,-4.710937 0.332935,-0.286378 0.647535,-0.430781 0.946289,-0.449707 z"
       style="opacity:1;fill:#b7b7b7;fill-opacity:1;fill-rule:nonzero;stroke:none;stroke-width:2.83464575;stroke-linecap:butt;stroke-linejoin:miter;stroke-miterlimit:4;stroke-dasharray:none;stroke-dashoffset:0;stroke-opacity:0.36470588;paint-order:normal" />
    <rect
       y="8.8157244"
       x="22.437346"
       height="5.2004037"
       width="5.3667841"
       id="rect853"
       style="opacity:1;fill:#b7b7b7;fill-opacity:1;fill-rule:nonzero;stroke:none;stroke-width:2.83464575;stroke-linecap:butt;stroke-linejoin:miter;stroke-miterlimit:4;stroke-dasharray:none;stroke-dashoffset:0;stroke-opacity:0.36470588;paint-order:normal" />
    <rect
       style="opacity:1;fill:#b7b7b7;fill-opacity:1;fill-rule:nonzero;stroke:none;stroke-width:2.83464575;stroke-linecap:butt;stroke-linejoin:miter;stroke-miterlimit:4;stroke-dasharray:none;stroke-dashoffset:0;stroke-opacity:0.36470588;paint-order:normal"
       id="rect855"
       width="5.3667841"
       height="5.2004037"
       x="27.804131"
       y="14.016128" />
    <rect
       y="19.216532"
       x="22.437347"
       height="5.2004037"
       width="5.3667841"
       id="rect857"
       style="opacity:1;fill:#b7b7b7;fill-opacity:1;fill-rule:nonzero;stroke:none;stroke-width:2.83464575;stroke-linecap:butt;stroke-linejoin:miter;stroke-miterlimit:4;stroke-dasharray:none;stroke-dashoffset:0;stroke-opacity:0.36470588;paint-order:normal" />
    <rect
       style="opacity:1;fill:#b7b7b7;fill-opacity:1;fill-rule:nonzero;stroke:none;stroke-width:2.83464575;stroke-linecap:butt;stroke-linejoin:miter;stroke-miterlimit:4;stroke-dasharray:none;stroke-dashoffset:0;stroke-opacity:0.36470588;paint-order:normal"
       id="rect859"
       width="5.3667841"
       height="5.2004037"
       x="27.804131"
       y="24.416935" />
    <rect
       y="29.617338"
       x="22.437347"
       height="5.2004037"
       width="5.3667841"
       id="rect861"
       style="opacity:1;fill:#b7b7b7;fill-opacity:1;fill-rule:nonzero;stroke:none;stroke-width:2.83464575;stroke-linecap:butt;stroke-linejoin:miter;stroke-miterlimit:4;stroke-dasharray:none;stroke-dashoffset:0;stroke-opacity:0.36470588;paint-order:normal" />
    <rect
       style="opacity:1;fill:#b7b7b7;fill-opacity:1;fill-rule:nonzero;stroke:none;stroke-width:2.83464575;stroke-linecap:butt;stroke-linejoin:miter;stroke-miterlimit:4;stroke-dasharray:none;stroke-dashoffset:0;stroke-opacity:0.36470588;paint-order:normal"
       id="rect863"
       width="5.3667841"
       height="5.2004037"
       x="27.804131"
       y="34.817741" />
    <rect
       y="40.018147"
       x="22.437347"
       height="5.2004037"
       width="5.3667841"
       id="rect865"
       style="opacity:1;fill:#b7b7b7;fill-opacity:1;fill-rule:nonzero;stroke:none;stroke-width:2.83464575;stroke-linecap:butt;stroke-linejoin:miter;stroke-miterlimit:4;stroke-dasharray:none;stroke-dashoffset:0;stroke-opacity:0.36470588;paint-order:normal" />
    <rect
       style="opacity:1;fill:#b7b7b7;fill-opacity:1;fill-rule:nonzero;stroke:none;stroke-width:2.83464575;stroke-linecap:butt;stroke-linejoin:miter;stroke-miterlimit:4;stroke-dasharray:none;stroke-dashoffset:0;stroke-opacity:0.36470588;paint-order:normal"
       id="rect867"
       width="5.3667841"
       height="5.2004037"
       x="27.804131"
       y="45.218552" />
    <rect
       style="opacity:1;fill:#b7b7b7;fill-opacity:1;fill-rule:nonzero;stroke:none;stroke-width:2.83464575;stroke-linecap:butt;stroke-linejoin:miter;stroke-miterlimit:4;stroke-dasharray:none;stroke-dashoffset:0;stroke-opacity:0.36470588;paint-order:normal"
       id="rect891"
       width="5.3667841"
       height="5.2004037"
       x="22.437347"
       y="50.418957" />
  </g>
</svg>
