<?xml version="1.0" encoding="UTF-8"?>
<svg id="svg12" width="128" height="128" version="1.0" viewBox="0 0 96 96" xmlns="http://www.w3.org/2000/svg" xmlns:cc="http://creativecommons.org/ns#" xmlns:dc="http://purl.org/dc/elements/1.1/" xmlns:rdf="http://www.w3.org/1999/02/22-rdf-syntax-ns#">
 <metadata id="metadata2">
  <rdf:RDF>
   <cc:Work rdf:about="">
    <dc:format>image/svg+xml</dc:format>
    <dc:type rdf:resource="http://purl.org/dc/dcmitype/StillImage"/>
    <dc:title/>
    <dc:creator>
     <cc:Agent>
      <dc:title>Mirian Margiani</dc:title>
     </cc:Agent>
    </dc:creator>
    <dc:date>2020</dc:date>
    <cc:license rdf:resource="http://creativecommons.org/licenses/by-sa/4.0/"/>
   </cc:Work>
   <cc:License rdf:about="http://creativecommons.org/licenses/by-sa/4.0/">
    <cc:permits rdf:resource="http://creativecommons.org/ns#Reproduction"/>
    <cc:permits rdf:resource="http://creativecommons.org/ns#Distribution"/>
    <cc:requires rdf:resource="http://creativecommons.org/ns#Notice"/>
    <cc:requires rdf:resource="http://creativecommons.org/ns#Attribution"/>
    <cc:permits rdf:resource="http://creativecommons.org/ns#DerivativeWorks"/>
    <cc:requires rdf:resource="http://creativecommons.org/ns#ShareAlike"/>
   </cc:License>
  </rdf:RDF>
 </metadata>
 <path id="rect834" transform="scale(.75)" d="m16 8v112h96v-82.5l-29.5-29.5h-33.301zm4 4h60v28h28v76h-88zm64 2.5s21 21.099 21 21.199c0 0.2-21 0.30078-21 0.30078z" fill="#b7b7b7" style="paint-order:normal"/>
 <g id="g834" transform="translate(6)" fill="#b7b7b7">
  <path id="rect884" d="m24.753 57.705s-0.42468 1.6494-0.66504 3.0835c-1.3392 7.9907-1.5908 10.979-1.5908 10.979 0 0 0.44836 1.012 0.83936 1.6274 0.99457 1.5655 2.8143 2.5339 4.7036 2.6133v0.01172c0.08172 0.0034 0.16298-0.0058 0.24463-0.0059 0.08165 5.1e-5 0.1629 0.0092 0.24463 0.0059v-0.01172c1.8894-0.07939 3.709-1.0478 4.7036-2.6133 0.39099-0.61543 0.83936-1.6274 0.83936-1.6274-2e-6 0-0.25161-2.9883-1.5908-10.979-0.24036-1.4341-0.66504-3.0835-0.66504-3.0835zm3.5317 8.5283c0.29875 0.01893 0.61335 0.16333 0.94629 0.44971 1.0809 0.92974 1.1501 3.6069 0.12158 4.7109-0.2675 0.28713-0.74816 0.52295-1.0679 0.52295-0.31972 0-0.80037-0.23582-1.0679-0.52295-1.0285-1.104-0.95931-3.7812 0.12158-4.7109 0.33294-0.28638 0.64754-0.43078 0.94629-0.44971z" style="paint-order:normal"/>
  <rect id="rect853" x="22.437" y="8.8157" width="5.3668" height="5.2004" style="paint-order:normal"/>
  <rect id="rect855" x="27.804" y="14.016" width="5.3668" height="5.2004" style="paint-order:normal"/>
  <rect id="rect857" x="22.437" y="19.217" width="5.3668" height="5.2004" style="paint-order:normal"/>
  <rect id="rect859" x="27.804" y="24.417" width="5.3668" height="5.2004" style="paint-order:normal"/>
  <rect id="rect861" x="22.437" y="29.617" width="5.3668" height="5.2004" style="paint-order:normal"/>
  <rect id="rect863" x="27.804" y="34.818" width="5.3668" height="5.2004" style="paint-order:normal"/>
  <rect id="rect865" x="22.437" y="40.018" width="5.3668" height="5.2004" style="paint-order:normal"/>
  <rect id="rect867" x="27.804" y="45.219" width="5.3668" height="5.2004" style="paint-order:normal"/>
  <rect id="rect891" x="22.437" y="50.419" width="5.3668" height="5.2004" style="paint-order:normal"/>
 </g>
</svg>
