<?xml version="1.0" encoding="UTF-8"?>
<!-- Created with Inkscape (http://www.inkscape.org/) -->
<svg id="svg8" width="128" height="128" version="1.1" viewBox="0 0 33.867 33.867" xmlns="http://www.w3.org/2000/svg" xmlns:cc="http://creativecommons.org/ns#" xmlns:dc="http://purl.org/dc/elements/1.1/" xmlns:rdf="http://www.w3.org/1999/02/22-rdf-syntax-ns#">
 <metadata id="metadata2">
  <rdf:RDF>
   <cc:Work rdf:about="">
    <dc:format>image/svg+xml</dc:format>
    <dc:type rdf:resource="http://purl.org/dc/dcmitype/StillImage"/>
    <dc:title/>
    <dc:creator>
     <cc:Agent>
      <dc:title>Mirian Margiani</dc:title>
     </cc:Agent>
    </dc:creator>
    <dc:date>2019-2020</dc:date>
    <cc:license rdf:resource="http://creativecommons.org/licenses/by-sa/4.0/"/>
   </cc:Work>
   <cc:License rdf:about="http://creativecommons.org/licenses/by-sa/4.0/">
    <cc:permits rdf:resource="http://creativecommons.org/ns#Reproduction"/>
    <cc:permits rdf:resource="http://creativecommons.org/ns#Distribution"/>
    <cc:requires rdf:resource="http://creativecommons.org/ns#Notice"/>
    <cc:requires rdf:resource="http://creativecommons.org/ns#Attribution"/>
    <cc:permits rdf:resource="http://creativecommons.org/ns#DerivativeWorks"/>
    <cc:requires rdf:resource="http://creativecommons.org/ns#ShareAlike"/>
   </cc:License>
  </rdf:RDF>
 </metadata>
 <g id="layer1" transform="translate(0 -263.13)">
  <g id="g981" transform="matrix(.94294 0 0 .94294 .96628 15.982)" fill="none">
   <path id="path937" d="m16.456 264.61-14.932 0.0469v25.276h4.6661v-22.476l10.265-0.0323 2.8217-7e-3zm0.01486 0.0141c2.34e-4 0.92927 0 2.7885 0 2.7885" stroke="#b7b7b7" stroke-width=".93322"/>
   <path id="path961" d="m21.123 267.41-14.932 0.0469v25.276h4.6661v-22.476l10.265-0.0323 2.8217-7e-3zm0.01486 0.0141c2.34e-4 0.92926 0 2.7885 0 2.7885" stroke="#c1c1c1" stroke-width=".93322"/>
   <g id="g867" transform="matrix(.88178 0 0 .88178 6.6679 35.908)" stroke="#cbcbcb" stroke-width="1.0583">
    <path id="path863" transform="translate(-.026541 -.079284)" d="m4.7774 265.84v28.665h24.365v-21.339l-7.4316-7.3785-16.933 0.0531v-2e-5z"/>
    <path id="path865" transform="translate(-.026541 -.079284)" d="m21.711 266.33v6.8344h6.8642" stroke-linecap="square"/>
   </g>
  </g>
 </g>
</svg>
