<?xml version="1.0" encoding="UTF-8"?>
<svg id="svg12" width="128" height="128" version="1.0" viewBox="0 0 96 96" xmlns="http://www.w3.org/2000/svg" xmlns:cc="http://creativecommons.org/ns#" xmlns:dc="http://purl.org/dc/elements/1.1/" xmlns:rdf="http://www.w3.org/1999/02/22-rdf-syntax-ns#">
 <metadata id="metadata2">
  <rdf:RDF>
   <cc:Work rdf:about="">
    <dc:format>image/svg+xml</dc:format>
    <dc:type rdf:resource="http://purl.org/dc/dcmitype/StillImage"/>
    <dc:title/>
    <dc:creator>
     <cc:Agent>
      <dc:title>Mirian Margiani</dc:title>
     </cc:Agent>
    </dc:creator>
    <dc:date>2020</dc:date>
    <cc:license rdf:resource="http://creativecommons.org/licenses/by-sa/4.0/"/>
   </cc:Work>
   <cc:License rdf:about="http://creativecommons.org/licenses/by-sa/4.0/">
    <cc:permits rdf:resource="http://creativecommons.org/ns#Reproduction"/>
    <cc:permits rdf:resource="http://creativecommons.org/ns#Distribution"/>
    <cc:requires rdf:resource="http://creativecommons.org/ns#Notice"/>
    <cc:requires rdf:resource="http://creativecommons.org/ns#Attribution"/>
    <cc:permits rdf:resource="http://creativecommons.org/ns#DerivativeWorks"/>
    <cc:requires rdf:resource="http://creativecommons.org/ns#ShareAlike"/>
   </cc:License>
  </rdf:RDF>
 </metadata>
 <path id="path850" transform="scale(.75)" d="m32 118v-108h-4v108z" fill="#b7b7b7" style="paint-order:normal"/>
 <path id="path854" d="m75 88.5v-60.19h-3v60.19z" fill="#b7b7b7" style="paint-order:normal"/>
 <path id="path856" d="m79.5 79.507v-2.9936h-3v2.9936z" fill="#b7b7b7" style="paint-order:normal"/>
 <path id="path858" d="m79.5 70.507v-2.9936h-3v2.9936z" fill="#b7b7b7" style="paint-order:normal"/>
 <path id="path860" d="m79.5 61.507v-2.9936h-3v2.9936z" fill="#b7b7b7" style="paint-order:normal"/>
 <path id="path862" d="m79.5 52.507v-2.9936h-3v2.9936z" fill="#b7b7b7" style="paint-order:normal"/>
 <path id="path864" d="m79.5 43.507v-2.9936h-3v2.9936z" fill="#b7b7b7" style="paint-order:normal"/>
 <path id="path866" d="m79.5 34.507v-2.9936h-3v2.9936z" fill="#b7b7b7" style="paint-order:normal"/>
 <path id="path868" d="m19.5 79.507v-2.9936h-3v2.9936z" fill="#b7b7b7" style="paint-order:normal"/>
 <path id="path870" d="m19.5 70.507v-2.9936h-3v2.9936z" fill="#b7b7b7" style="paint-order:normal"/>
 <path id="path872" d="m19.5 61.507v-2.9936h-3v2.9936z" fill="#b7b7b7" style="paint-order:normal"/>
 <path id="path874" d="m19.5 52.507v-2.9936h-3v2.9936z" fill="#b7b7b7" style="paint-order:normal"/>
 <path id="path876" d="m19.5 43.507v-2.9936h-3v2.9936z" fill="#b7b7b7" style="paint-order:normal"/>
 <path id="path878" d="m19.5 34.507v-2.9936h-3v2.9936z" fill="#b7b7b7" style="paint-order:normal"/>
 <path id="path880" d="m19.5 25.507v-2.9936h-3v2.9936z" fill="#b7b7b7" style="paint-order:normal"/>
 <path id="path882" d="m19.5 16.507v-2.9936h-3v2.9936z" fill="#b7b7b7" style="paint-order:normal"/>
 <path id="path884" d="m39.266 34.542v26.955l20.743-11.976-20.743-14.979z" fill="#b7b7b7" stroke-linecap="square" stroke-width="2.625"/>
 <path id="path865" d="m61.421 7.9005v20.376h20.375m-68.21 60.285h68.828v-60.28l-20.993-20.843-47.834 1e-7z" fill="none" stroke="#b7b7b7" stroke-width="3"/>
</svg>
