<?xml version="1.0" encoding="UTF-8"?>
<svg id="svg12" width="128" height="128" version="1.0" viewBox="0 0 96 96" xmlns="http://www.w3.org/2000/svg" xmlns:cc="http://creativecommons.org/ns#" xmlns:dc="http://purl.org/dc/elements/1.1/" xmlns:rdf="http://www.w3.org/1999/02/22-rdf-syntax-ns#">
 <metadata id="metadata2">
  <rdf:RDF>
   <cc:Work rdf:about="">
    <dc:format>image/svg+xml</dc:format>
    <dc:type rdf:resource="http://purl.org/dc/dcmitype/StillImage"/>
    <dc:title/>
    <dc:creator>
     <cc:Agent>
      <dc:title>Mirian Margiani</dc:title>
     </cc:Agent>
    </dc:creator>
    <dc:date>2019-2020</dc:date>
    <cc:license rdf:resource="http://creativecommons.org/licenses/by-sa/4.0/"/>
   </cc:Work>
   <cc:License rdf:about="http://creativecommons.org/licenses/by-sa/4.0/">
    <cc:permits rdf:resource="http://creativecommons.org/ns#Reproduction"/>
    <cc:permits rdf:resource="http://creativecommons.org/ns#Distribution"/>
    <cc:requires rdf:resource="http://creativecommons.org/ns#Notice"/>
    <cc:requires rdf:resource="http://creativecommons.org/ns#Attribution"/>
    <cc:permits rdf:resource="http://creativecommons.org/ns#DerivativeWorks"/>
    <cc:requires rdf:resource="http://creativecommons.org/ns#ShareAlike"/>
   </cc:License>
  </rdf:RDF>
 </metadata>
 <path id="rect851" d="m46.829 33.018c-0.28559-0.01432-0.57981 0.01803-0.93247 0.08935-2.6174 0.52944-3.7639 2.6748-3.7697 7.0536-0.0032 2.426 0.6495 5.7678 1.7155 8.7829 0.29759 0.84173 0.54196 1.6978 0.54259 1.9023 0.0026 0.84788-2.181 5.9373-3.9516 9.2102-1.4883 2.751-3.0953 5.38-3.4172 5.5907-0.15544 0.1018-0.82118 0.4004-1.4799 0.66361-0.65874 0.26321-1.9767 0.8544-2.9282 1.3142-6.1666 2.9801-9.3192 6.511-8.722 9.7674 0.1592 0.86799 0.44384 1.3178 1.0632 1.6806 0.94124 0.55117 1.8542 0.55031 3.3205-0.0016 2.5309-0.95263 5.7334-4.0334 9.0461-8.7017 1.8521-2.61 1.5781-2.3877 3.8273-3.0979 3.5268-1.1137 6.4461-1.8074 10.225-2.4295 2.9294-0.48222 2.8284-0.49701 3.7534 0.55802 0.87304 0.99572 3.4664 3.4121 4.8297 4.4999 1.8947 1.5117 4.0873 2.7823 5.5355 3.2084 0.99969 0.29417 2.5605 0.29936 3.5357 0.01218 1.4491-0.4267 2.7339-1.5977 3.0533-2.7836 0.08208-0.30481 0.12834-1.0373 0.10315-1.6278-0.03803-0.89189-0.1206-1.2266-0.48897-1.9746-1.6391-3.3281-6.081-5.0531-13.499-5.2423l-2.8973-0.07391-0.67661-0.74078c-2.1387-2.34-5.2474-6.6382-6.5127-9.0054l-0.56939-1.0649 0.62137-2.1955c0.97347-3.4404 1.5816-6.5496 2.0274-10.368 0.34628-2.9663 0.08872-3.6298-1.7577-4.5243-0.66729-0.32324-1.1209-0.47731-1.5969-0.50116zm-0.3777 2.8843c0.76761 0 0.99582 0.19025 0.99582 0.83094 0 1.4868-1.0047 7.7417-1.3459 8.3792-0.17287 0.32301-0.36801 0.29969-0.50197-0.06092-0.3823-1.0291-0.60867-2.8112-0.61163-4.824-0.0047-3.2368 0.36396-4.3253 1.4637-4.3253zm-0.15108 18.631c0.10899 0 0.53952 0.52433 0.95684 1.1648 0.93176 1.43 2.3468 3.354 3.4708 4.72 0.76592 0.93082 1.0563 1.5677 0.71478 1.5677-0.73701 0-6.8426 1.3456-9.4173 2.0753-0.19373 0.0549-0.32274 0.02002-0.36876-0.09991-0.03891-0.10139 0.42057-1.0813 1.021-2.1777 0.9883-1.8045 2.9627-5.9236 3.2929-6.8709 0.07266-0.20843 0.22079-0.37932 0.32977-0.37932zm12.804 9.73c0.17729 0.0071 0.40194 0.02226 0.68879 0.04306 2.714 0.19661 5.9314 0.92468 7.2794 1.6473 0.3671 0.19677 0.97432 0.65666 1.3492 1.0226 1.3129 1.2819 1.4434 2.6871 0.30378 3.2685-0.63293 0.3229-1.5846 0.42857-2.2808 0.25424-1.3002-0.32556-3.6537-1.8306-5.9205-3.7867-1.8704-1.614-2.2203-1.9917-2.1119-2.2743 0.05753-0.14994 0.16016-0.19611 0.69204-0.17464zm-25.771 6.2235c0.34392 0.0052-8.82e-4 0.57412-1.0413 1.7772-2.0997 2.428-3.8481 3.8765-5.1732 4.2863-0.21522 0.06655-0.32399 0.03102-0.3842-0.1259-0.04619-0.12033-0.0087-0.4685 0.08285-0.77408 0.32936-1.0994 3.2906-3.6432 5.6208-4.828 0.4402-0.22383 0.73878-0.33784 0.89511-0.33546z" fill="#b7b7b7" style="paint-order:normal"/>
 <path id="path865" d="m61.421 7.9005v20.376h20.375m-68.21 60.285h68.828v-60.28l-20.993-20.843h-47.834z" fill="none" stroke="#b7b7b7" stroke-width="3"/>
</svg>
