<?xml version="1.0" encoding="UTF-8"?>
<svg id="svg24" width="86" height="86" version="1.1" viewBox="0 0 86 86" xmlns="http://www.w3.org/2000/svg" xmlns:cc="http://creativecommons.org/ns#" xmlns:dc="http://purl.org/dc/elements/1.1/" xmlns:rdf="http://www.w3.org/1999/02/22-rdf-syntax-ns#">
 <metadata id="metadata2">
  <rdf:RDF>
   <cc:Work rdf:about="">
    <dc:format>image/svg+xml</dc:format>
    <dc:type rdf:resource="http://purl.org/dc/dcmitype/StillImage"/>
    <dc:title/>
    <dc:creator>
     <cc:Agent>
      <dc:title>Mirian Margiani</dc:title>
     </cc:Agent>
    </dc:creator>
    <dc:date>2019-2020</dc:date>
    <cc:license rdf:resource="http://creativecommons.org/licenses/by-sa/4.0/"/>
   </cc:Work>
   <cc:License rdf:about="http://creativecommons.org/licenses/by-sa/4.0/">
    <cc:permits rdf:resource="http://creativecommons.org/ns#Reproduction"/>
    <cc:permits rdf:resource="http://creativecommons.org/ns#Distribution"/>
    <cc:requires rdf:resource="http://creativecommons.org/ns#Notice"/>
    <cc:requires rdf:resource="http://creativecommons.org/ns#Attribution"/>
    <cc:permits rdf:resource="http://creativecommons.org/ns#DerivativeWorks"/>
    <cc:requires rdf:resource="http://creativecommons.org/ns#ShareAlike"/>
   </cc:License>
  </rdf:RDF>
 </metadata>
 <defs id="defs28">
  <linearGradient id="linearGradient909" x1="102.48" x2="17.076" y1="101.52" y2="16.122" gradientTransform="matrix(-1 0 0 1 102.78 -15.822)" gradientUnits="userSpaceOnUse">
   <stop id="stop835" stop-color="#5f5f5f" stop-opacity=".98431" offset="0"/>
   <stop id="stop911" stop-color="#bcbcbc" stop-opacity=".99216" offset=".85376"/>
   <stop id="stop837" stop-color="#fff" offset="1"/>
  </linearGradient>
 </defs>
 <g id="layer3">
  <path id="path913" d="m1.7225 0.302h41.276c23.582 0 42.699 19.117 42.699 42.699v41.276c0 0.78598-0.63698 1.423-1.423 1.423h-82.551c-0.78598 0-1.423-0.63699-1.423-1.423v-82.552c-9.9998e-4 -0.78598 0.63599-1.423 1.422-1.423z" fill="#616161" stroke-width=".99998"/>
  <path id="path840" d="m1.7225 0.3h41.277c23.583 0 42.7 19.117 42.7 42.7v41.277c0 0.786-0.637 1.423-1.423 1.423h-82.553c-0.786 0-1.423-0.637-1.423-1.423v-82.554c-1e-3 -0.786 0.636-1.423 1.422-1.423z" fill="url(#linearGradient909)"/>
  <path id="path962" transform="translate(-90.297 .69035)" d="m159.95 36.364v-5.8334h-19.778l-5.005-5.005h-29.823v10.838h54.606z" fill="#f0f0f0" fill-rule="evenodd" stroke="#e7e7e7" stroke-linejoin="round" stroke-width=".5"/>
  <path id="path929" transform="matrix(-1 0 0 1 175.2 .69035)" d="m100.41 35.526h64.686l-4.6862 35.147h-55.314l-4.6862-35.147z" fill="#d8d8d8" fill-rule="evenodd" stroke="#d0d0d0" stroke-linecap="square" stroke-width=".5"/>
 </g>
</svg>
