<?xml version="1.0" encoding="UTF-8"?>
<svg id="svg8" width="64" height="64" version="1.1" viewBox="0 0 16.933 16.933" xmlns="http://www.w3.org/2000/svg" xmlns:cc="http://creativecommons.org/ns#" xmlns:dc="http://purl.org/dc/elements/1.1/" xmlns:rdf="http://www.w3.org/1999/02/22-rdf-syntax-ns#">
 <metadata id="metadata2">
  <rdf:RDF>
   <cc:Work rdf:about="">
    <dc:format>image/svg+xml</dc:format>
    <dc:type rdf:resource="http://purl.org/dc/dcmitype/StillImage"/>
    <dc:title/>
    <dc:creator>
     <cc:Agent>
      <dc:title>Mirian Margiani</dc:title>
     </cc:Agent>
    </dc:creator>
    <dc:date>2019-2020</dc:date>
    <cc:license rdf:resource="http://creativecommons.org/licenses/by-sa/4.0/"/>
   </cc:Work>
   <cc:License rdf:about="http://creativecommons.org/licenses/by-sa/4.0/">
    <cc:permits rdf:resource="http://creativecommons.org/ns#Reproduction"/>
    <cc:permits rdf:resource="http://creativecommons.org/ns#Distribution"/>
    <cc:requires rdf:resource="http://creativecommons.org/ns#Notice"/>
    <cc:requires rdf:resource="http://creativecommons.org/ns#Attribution"/>
    <cc:permits rdf:resource="http://creativecommons.org/ns#DerivativeWorks"/>
    <cc:requires rdf:resource="http://creativecommons.org/ns#ShareAlike"/>
   </cc:License>
  </rdf:RDF>
 </metadata>
 <path id="path856" d="m7.7049 10.794c0.023294-0.14646 0.046555-0.29271-0.00478-0.41216-0.051332-0.11946-0.1776-0.21191-0.41862-0.26535s-0.59677-0.06767-0.9194-0.02501c-0.32262 0.04266-0.61199 0.14227-0.82791 0.2775s-0.35822 0.30598-0.45072 0.51004c-0.092504 0.20406-0.13519 0.44122-0.13279 0.73773 0.00241 0.29651 0.049841 0.65225 0.13766 0.94873 0.087816 0.29648 0.21589 0.53364 0.35625 0.68449s0.30091 0.21896 0.43527 0.16984c0.13436-0.04913 0.24691-0.21376 0.35942-0.37835 0 0 1.4656-2.2475 1.4656-2.2475z" fill="none" stroke="#fff" stroke-linecap="round" stroke-opacity=".50196" stroke-width=".49681"/>
 <path id="path852" d="m12.25 3.9708c-2.075 3.123-4.1499 6.246-6.2248 9.3689" fill="none" stroke="#fff" stroke-linecap="round" stroke-width=".49681"/>
 <path id="path860" d="m9.6057 10.794c-0.023294-0.14646-0.046555-0.29271 0.00478-0.41216 0.051332-0.11946 0.1776-0.21191 0.41862-0.26535 0.24103-0.05344 0.59677-0.06767 0.91939-0.02501s0.61199 0.14227 0.8279 0.2775c0.21592 0.13522 0.35822 0.30598 0.45072 0.51004s0.13519 0.44122 0.13279 0.73773-0.04984 0.65225-0.13766 0.94873-0.21588 0.53364-0.35625 0.68449c-0.14036 0.15085-0.30091 0.21896-0.43527 0.16984-0.13436-0.04913-0.24691-0.21376-0.35942-0.37835l-1.4656-2.2475z" fill="none" stroke="#fff" stroke-linecap="round" stroke-opacity=".50196" stroke-width=".49681"/>
 <path id="path864" d="m5.0608 3.9708c2.075 3.123 4.1499 6.246 6.2248 9.3689" fill="none" stroke="#fff" stroke-linecap="round" stroke-width=".49681"/>
</svg>
