<?xml version="1.0" encoding="UTF-8"?>
<svg id="svg8" width="64" height="64" version="1.1" viewBox="0 0 16.933 16.933" xmlns="http://www.w3.org/2000/svg" xmlns:cc="http://creativecommons.org/ns#" xmlns:dc="http://purl.org/dc/elements/1.1/" xmlns:rdf="http://www.w3.org/1999/02/22-rdf-syntax-ns#">
 <metadata id="metadata2">
  <rdf:RDF>
   <cc:Work rdf:about="">
    <dc:format>image/svg+xml</dc:format>
    <dc:type rdf:resource="http://purl.org/dc/dcmitype/StillImage"/>
    <dc:title/>
    <dc:creator>
     <cc:Agent>
      <dc:title>Mirian Margiani</dc:title>
     </cc:Agent>
    </dc:creator>
    <dc:date>2019-2020</dc:date>
    <cc:license rdf:resource="http://creativecommons.org/licenses/by-sa/4.0/"/>
   </cc:Work>
   <cc:License rdf:about="http://creativecommons.org/licenses/by-sa/4.0/">
    <cc:permits rdf:resource="http://creativecommons.org/ns#Reproduction"/>
    <cc:permits rdf:resource="http://creativecommons.org/ns#Distribution"/>
    <cc:requires rdf:resource="http://creativecommons.org/ns#Notice"/>
    <cc:requires rdf:resource="http://creativecommons.org/ns#Attribution"/>
    <cc:permits rdf:resource="http://creativecommons.org/ns#DerivativeWorks"/>
    <cc:requires rdf:resource="http://creativecommons.org/ns#ShareAlike"/>
   </cc:License>
  </rdf:RDF>
 </metadata>
 <g id="text4557" transform="matrix(.5948 0 0 1.4416 .0052037 .63343)" fill="#fff" stroke-width=".52916" aria-label="I">
  <path id="path848" d="m6.5626 8.9823 1.0899 0.17109v0.33584h-3.0081v-0.33584l1.0725-0.17109-0.034888-7.0941-1.0725-0.16475v-0.34527h3.0081v0.34527l-1.0899 0.16475z" fill="#fff" stroke-width=".52916"/>
 </g>
 <g id="text4565" transform="matrix(.92599 0 0 .92599 .33204 .73718)" fill="#fff" fill-opacity=".50196" stroke-width=".52916" aria-label="...">
  <path id="path851" d="m7.5099 12.5q0 0.26029-0.18592 0.45152-0.18061 0.19123-0.45683 0.19123t-0.46214-0.19123q-0.18061-0.19123-0.18061-0.45152 0-0.27091 0.18592-0.45683 0.18592-0.18592 0.45683-0.18592t0.45683 0.18592q0.18592 0.18592 0.18592 0.45683z"/>
  <path id="path853" d="m11.236 12.5q0 0.26029-0.18592 0.45152-0.18061 0.19123-0.45683 0.19123-0.27622 0-0.46214-0.19123-0.18061-0.19123-0.18061-0.45152 0-0.27091 0.18592-0.45683 0.18592-0.18592 0.45683-0.18592 0.27091 0 0.45683 0.18592 0.18592 0.18592 0.18592 0.45683z"/>
  <path id="path855" d="m14.961 12.5q0 0.26029-0.18592 0.45152-0.18061 0.19123-0.45683 0.19123-0.27622 0-0.46214-0.19123-0.18061-0.19123-0.18061-0.45152 0-0.27091 0.18592-0.45683 0.18592-0.18592 0.45683-0.18592 0.27091 0 0.45683 0.18592 0.18592 0.18592 0.18592 0.45683z"/>
 </g>
</svg>
