<?xml version="1.0" encoding="UTF-8"?>
<svg id="svg8" width="64" height="64" version="1.1" viewBox="0 0 16.933 16.933" xmlns="http://www.w3.org/2000/svg" xmlns:cc="http://creativecommons.org/ns#" xmlns:dc="http://purl.org/dc/elements/1.1/" xmlns:rdf="http://www.w3.org/1999/02/22-rdf-syntax-ns#">
 <metadata id="metadata2">
  <rdf:RDF>
   <cc:Work rdf:about="">
    <dc:format>image/svg+xml</dc:format>
    <dc:type rdf:resource="http://purl.org/dc/dcmitype/StillImage"/>
    <dc:title/>
    <dc:creator>
     <cc:Agent>
      <dc:title>Mirian Margiani</dc:title>
     </cc:Agent>
    </dc:creator>
    <dc:date>2019-2020</dc:date>
    <cc:license rdf:resource="http://creativecommons.org/licenses/by-sa/4.0/"/>
   </cc:Work>
   <cc:License rdf:about="http://creativecommons.org/licenses/by-sa/4.0/">
    <cc:permits rdf:resource="http://creativecommons.org/ns#Reproduction"/>
    <cc:permits rdf:resource="http://creativecommons.org/ns#Distribution"/>
    <cc:requires rdf:resource="http://creativecommons.org/ns#Notice"/>
    <cc:requires rdf:resource="http://creativecommons.org/ns#Attribution"/>
    <cc:permits rdf:resource="http://creativecommons.org/ns#DerivativeWorks"/>
    <cc:requires rdf:resource="http://creativecommons.org/ns#ShareAlike"/>
   </cc:License>
  </rdf:RDF>
 </metadata>
 <path id="path856" d="m7.2384 10.371c-0.066006-0.1536-0.22836-0.27248-0.53827-0.34119-0.3099-0.068713-0.76733-0.087017-1.1822-0.032153-0.41483 0.054856-0.7869 0.18293-1.0645 0.35681-0.27763 0.17388-0.4606 0.39343-0.57954 0.65581-0.11894 0.26238-0.17383 0.56732-0.17074 0.94858 0.0031 0.38125 0.064087 0.83866 0.177 1.2199 0.11291 0.38122 0.27759 0.68616 0.45807 0.88012s0.38691 0.28154 0.55967 0.21838c0.17276-0.06317 0.30909-0.2869 0.45375-0.49853l1.9291-2.9553c0.014988-0.09414 0.023601-0.29879-0.042399-0.45238z" fill="none" stroke="#fff" stroke-linecap="round" stroke-opacity=".50196" stroke-width=".52916"/>
 <path id="path852" d="m12.582 2.6347c-2.668 4.0156-4.8288 7.524-7.4968 11.539" fill="none" stroke="#fff" stroke-linecap="round" stroke-width=".52916"/>
 <path id="path860" d="m9.6947 10.371c0.065999-0.1536 0.22836-0.27248 0.53826-0.34119 0.30992-0.068713 0.76733-0.087017 1.1822-0.032152 0.41483 0.054855 0.7869 0.18293 1.0645 0.35681 0.27763 0.17387 0.4606 0.39343 0.57954 0.65581 0.11894 0.26238 0.17383 0.56732 0.17074 0.94858-0.0031 0.38125-0.06408 0.83866-0.177 1.2199-0.11292 0.38122-0.27758 0.68616-0.45807 0.88012-0.18048 0.19396-0.38691 0.28154-0.55967 0.21838-0.17276-0.06317-0.29808-0.27819-0.44275-0.48982l-1.9386-2.9651c-0.014951-0.09413-0.025097-0.29774 0.040863-0.45132z" fill="none" stroke="#fff" stroke-linecap="round" stroke-opacity=".50196" stroke-width=".52916"/>
 <path id="path864" d="m4.3518 2.6347c2.668 4.0156 4.8288 7.524 7.4968 11.539" fill="none" stroke="#fff" stroke-linecap="round" stroke-width=".52916"/>
</svg>
