<?xml version="1.0" encoding="UTF-8"?>
<svg id="svg8" width="64" height="64" version="1.1" viewBox="0 0 16.933 16.933" xmlns="http://www.w3.org/2000/svg" xmlns:cc="http://creativecommons.org/ns#" xmlns:dc="http://purl.org/dc/elements/1.1/" xmlns:rdf="http://www.w3.org/1999/02/22-rdf-syntax-ns#" xmlns:xlink="http://www.w3.org/1999/xlink">
 <defs id="defs8">
  <marker id="CurveIn" overflow="visible" markerHeight="4.4955754" markerWidth="3.9002752" orient="auto-start-reverse" preserveAspectRatio="none" refX="0.35061088" refY="0.0035640255" viewBox="0 0 3.54 7.08">
   <path id="path186" d="m-0.7647-3.0274c1.656 0 3 1.344 3 3 0 1.656-1.344 3-3 3" fill="none" stroke="context-stroke" stroke-width="1.08"/>
  </marker>
  <linearGradient id="linearGradient1342">
   <stop id="stop1338" stop-color="#fff" stop-opacity="0" offset="0"/>
   <stop id="stop1340" stop-color="#fff" offset="1"/>
  </linearGradient>
  <linearGradient id="linearGradient1334">
   <stop id="stop1330" stop-color="#fff" offset="0"/>
   <stop id="stop1332" stop-color="#fff" stop-opacity="0" offset="1"/>
  </linearGradient>
  <linearGradient id="linearGradient1336" x1="1.6593" x2="8.1308" y1="8.4665" y2="8.4665" gradientUnits="userSpaceOnUse" xlink:href="#linearGradient1334"/>
  <linearGradient id="linearGradient1344" x1="9.621" x2="15.274" y1="8.4665" y2="8.4665" gradientUnits="userSpaceOnUse" xlink:href="#linearGradient1342"/>
 </defs>
 <metadata id="metadata2">
  <rdf:RDF>
   <cc:Work rdf:about="">
    <dc:format>image/svg+xml</dc:format>
    <dc:type rdf:resource="http://purl.org/dc/dcmitype/StillImage"/>
    <dc:title/>
    <dc:creator>
     <cc:Agent>
      <dc:title>SPDX-FileCopyrightText: Mirian Margiani</dc:title>
     </cc:Agent>
    </dc:creator>
    <dc:date>2019-2021</dc:date>
    <cc:license rdf:resource="http://creativecommons.org/licenses/by-sa/4.0/"/>
   </cc:Work>
   <cc:License rdf:about="http://creativecommons.org/licenses/by-sa/4.0/">
    <cc:permits rdf:resource="http://creativecommons.org/ns#Reproduction"/>
    <cc:permits rdf:resource="http://creativecommons.org/ns#Distribution"/>
    <cc:requires rdf:resource="http://creativecommons.org/ns#Notice"/>
    <cc:requires rdf:resource="http://creativecommons.org/ns#Attribution"/>
    <cc:permits rdf:resource="http://creativecommons.org/ns#DerivativeWorks"/>
    <cc:requires rdf:resource="http://creativecommons.org/ns#ShareAlike"/>
   </cc:License>
  </rdf:RDF>
 </metadata>
 <path id="path291" d="m12.633 4.0668v2.2662h2.3139m-6.898 6.5799h6.9605v-6.5794l-2.3764-2.3134h-4.584z" fill="none" stroke="url(#linearGradient1344)" stroke-width=".52916"/>
 <path id="path389" d="m6.5081 4.0668v2.2662h2.3139m-6.898 6.5799h6.9605v-6.5794l-2.3764-2.3134h-4.584z" fill="none" stroke="url(#linearGradient1336)" stroke-opacity=".50196" stroke-width=".52916"/>
 <g id="g550" transform="translate(-23.029 -19.196)">
  <path id="path532" d="m12.633 4.0668v2.2662h2.3139m-6.898 6.5799h6.9605v-6.5794l-2.3764-2.3134h-4.584z" fill="none" stroke="url(#linearGradient1344)" stroke-width=".52916"/>
  <path id="path534" d="m6.5081 4.0668v2.2662h2.3139m-6.898 6.5799h6.9605v-6.5794l-2.3764-2.3134h-4.584z" fill="none" stroke="url(#linearGradient1336)" stroke-opacity=".50196" stroke-width=".52916"/>
  <path id="path536" d="m12.137 10.355h-2.0385z" fill="none" stroke="#fff" stroke-width=".52916"/>
  <path id="path538" d="m11.118 11.374v-2.0385z" fill="none" stroke="#fff" stroke-width=".52916"/>
  <g id="g542" transform="scale(-1,1)" fill="#fff" stroke-linecap="round" stroke-linejoin="round" stroke-opacity=".50196" stroke-width=".28839" aria-label="∞">
   <path id="path540" d="m-8.6503 8.0261q0.26935-0.44043 0.54963-0.63334 0.28027-0.19656 0.62606-0.19656 0.48047 0 0.79714 0.34215 0.32031 0.33851 0.32031 0.92818 0 0.58967-0.32031 0.93182-0.31667 0.33851-0.79714 0.33851-0.34215 0-0.62242-0.19292-0.28027-0.19292-0.55327-0.63698-0.21839 0.30575-0.50231 0.46591-0.28391 0.16016-0.54235 0.16016-0.36763 0-0.62607-0.28391-0.25479-0.28755-0.25479-0.78258t0.25479-0.77894q0.25843-0.28391 0.62607-0.28391 0.25843 0 0.54235 0.16016 0.28391 0.16016 0.50231 0.46227zm0.33851 0.43315q0.30575 0.46955 0.42951 0.57511 0.19292 0.1638 0.41859 0.1638 0.27663 0 0.42587-0.21475 0.14924-0.21475 0.14924-0.53143 0-0.34215-0.1638-0.53143t-0.40039-0.18928q-0.18564 0-0.37491 0.13104-0.18564 0.13104-0.48411 0.59695zm-0.65154-0.00728q-0.36399-0.51323-0.69158-0.51323-0.16744 0-0.29119 0.13468-0.12012 0.13468-0.12012 0.37491 0 0.24751 0.12012 0.38583 0.12012 0.13832 0.29119 0.13832 0.14196 0 0.25479-0.076438 0.19656-0.13104 0.43679-0.44407z"/>
  </g>
 </g>
 <g id="g13746" transform="translate(-23.711 -4.2706)" stroke-width=".52916">
  <path id="path13709" d="m12.633 4.0668v2.2662h2.3139m-6.898 6.5799h6.9605v-6.5794l-2.3764-2.3134h-4.584z" fill="none" stroke="url(#linearGradient1344)"/>
  <path id="path13711" d="m6.5081 4.0668v2.2662h2.3139m-6.898 6.5799h6.9605v-6.5794l-2.3764-2.3134h-4.584z" fill="none" stroke="url(#linearGradient1336)" stroke-opacity=".50196"/>
  <path id="path13713" d="m7.0391 8.4665h2.8547" fill="#fff" marker-end="url(#CurveIn)" marker-start="url(#CurveIn)" stroke="#fff" stroke-linecap="round" stroke-linejoin="round"/>
 </g>
 <path id="path14161" d="m2.5543 28.616c0.61734 0 1.1178-0.50045 1.1178-1.1178 0-0.61734-0.50045-1.1178-1.1178-1.1178h-1.79c-0.61734 0-1.1178 0.50045-1.1178 1.1178 0 0.61734 0.50045 1.1178 1.1178 1.1178z" fill="none" stroke="#fff" stroke-linecap="round" stroke-linejoin="round" stroke-width=".52916"/>
 <path id="path14163" d="m4.3443 28.616c0.61734 0 1.1178-0.50045 1.1178-1.1178 0-0.61734-0.50045-1.1178-1.1178-1.1178h-1.79c-0.61734 0-1.1178 0.50045-1.1178 1.1178 3e-7 0.61734 0.50045 1.1178 1.1178 1.1178z" fill="none" stroke="#fff" stroke-linecap="round" stroke-linejoin="round" stroke-width=".52916"/>
 <path id="path13916" d="m8.8693 8.5925c0.04555-0.10264 0.070761-0.21564 0.070761-0.33429 0-0.47058-0.39651-0.85206-0.88564-0.85206h-1.4182c-0.48912 0-0.88564 0.38148-0.88564 0.85206 2e-7 0.47058 0.39651 0.85206 0.88564 0.85206h0.70163" fill="none" stroke="#fff" stroke-linecap="round" stroke-linejoin="round" stroke-width=".52916"/>
 <path id="path14388" d="m8.0637 8.3405c-0.04555 0.10264-0.070761 0.21564-0.070761 0.3343 0 0.47058 0.39651 0.85206 0.88564 0.85206h1.4182c0.48912 0 0.88564-0.38148 0.88564-0.85206-1e-6 -0.47058-0.39651-0.85206-0.88564-0.85206h-0.70162" fill="none" stroke="#fff" stroke-linecap="round" stroke-linejoin="round" stroke-width=".52916"/>
 <path id="path14488" d="m3.3318 22.872c0.05749-0.13465 0.08931-0.28289 0.08931-0.43855 0-0.61734-0.50045-1.1178-1.1178-1.1178h-1.79c-0.61734 0-1.1178 0.50045-1.1178 1.1178 3e-7 0.61734 0.50045 1.1178 1.1178 1.1178h0.88555" fill="none" stroke="#fff" stroke-linecap="round" stroke-linejoin="round" stroke-width=".52916"/>
 <path id="path14490" d="m2.0132 21.995c-0.05749 0.13465-0.08931 0.28289-0.08931 0.43855 0 0.61734 0.50045 1.1178 1.1178 1.1178h1.79c0.61734 0 1.1178-0.50045 1.1178-1.1178-1e-6 -0.61734-0.50045-1.1178-1.1178-1.1178h-0.88554" fill="none" stroke="#fff" stroke-linecap="round" stroke-linejoin="round" stroke-width=".52916"/>
 <g id="g14606" transform="translate(-23.711 9.2557)" fill="none" stroke-width=".52916">
  <path id="path14582" d="m12.633 4.0668v2.2662h2.3139m-6.898 6.5799h6.9605v-6.5794l-2.3764-2.3134h-4.584z" stroke="url(#linearGradient1344)"/>
  <path id="path14584" d="m6.5081 4.0668v2.2662h2.3139m-6.898 6.5799h6.9605v-6.5794l-2.3764-2.3134h-4.584z" stroke="url(#linearGradient1336)" stroke-opacity=".50196"/>
  <path id="path14586" d="m9.1258 8.9051c0.05749-0.13465 0.08931-0.28289 0.08931-0.43855 0-0.61734-0.50045-1.1178-1.1178-1.1178h-1.79c-0.61734 0-1.1178 0.50045-1.1178 1.1178 3e-7 0.61734 0.50045 1.1178 1.1178 1.1178h0.88555" stroke="#fff" stroke-linecap="round" stroke-linejoin="round"/>
  <path id="path14588" d="m7.8072 8.0279c-0.05749 0.13465-0.08931 0.28289-0.08931 0.43855 0 0.61734 0.50045 1.1178 1.1178 1.1178h1.79c0.61734 0 1.1178-0.50045 1.1178-1.1178-1e-6 -0.61734-0.50045-1.1178-1.1178-1.1178h-0.88554" stroke="#fff" stroke-linecap="round" stroke-linejoin="round"/>
 </g>
 <g id="g15213" transform="translate(-23.029 21.019)" fill="none" stroke-width=".52916">
  <path id="path15189" d="m12.633 4.0668v2.2662h2.3139m-6.898 6.5799h6.9605v-6.5794l-2.3764-2.3134h-4.584z" stroke="url(#linearGradient1344)"/>
  <path id="path15191" d="m6.5081 4.0668v2.2662h2.3139m-6.898 6.5799h6.9605v-6.5794l-2.3764-2.3134h-4.584z" stroke="url(#linearGradient1336)" stroke-opacity=".50196"/>
  <path id="path15193" d="m8.8693 8.5925c0.04555-0.10264 0.070761-0.21564 0.070761-0.33429 0-0.47058-0.39651-0.85206-0.88564-0.85206h-1.4182c-0.48912 0-0.88564 0.38148-0.88564 0.85206 2e-7 0.47058 0.39651 0.85206 0.88564 0.85206h0.70163" stroke="#fff" stroke-linecap="round" stroke-linejoin="round"/>
  <path id="path15195" d="m8.0637 8.3405c-0.04555 0.10264-0.070761 0.21564-0.070761 0.3343 0 0.47058 0.39651 0.85206 0.88564 0.85206h1.4182c0.48912 0 0.88564-0.38148 0.88564-0.85206-1e-6 -0.47058-0.39651-0.85206-0.88564-0.85206h-0.70162" stroke="#fff" stroke-linecap="round" stroke-linejoin="round"/>
 </g>
</svg>
